<svg xmlns="http://www.w3.org/2000/svg" version="1.1" x="0" y="0" viewBox="0 0 151 27.8" xml:space="preserve" class="ht-footer__logo__svg">
    <path d="M0.6 1.1h5.7v6.1h3.2V1.1h5.7V19H9.5v-6.6H6.3V19H0.6V1.1zM4 16.9v-6.8h7.9v6.8h0.7V3.3h-0.7v6.2H4V3.3H3.3v13.6H4zM23 1.1h4.3L34 19h-5.6l-0.6-1.6h-5.4L21.8 19h-5.6L23 1.1zM20.2 16.9l0.5-1.3h8.8l0.5 1.3h0.7L25.6 3.3h-1l-5.2 13.6H20.2zM25.1 3.9l4.2 11h-8.4L25.1 3.9zM26.3 13.5l-1.2-3.1 -1.2 3.1H26.3zM33.4 10.1c0-1.4 0.2-2.7 0.7-3.9 0.5-1.2 1.2-2.1 2-3 0.9-0.8 1.9-1.5 3-1.9 1.1-0.4 2.4-0.7 3.6-0.7 1 0 1.9 0.1 2.7 0.3 0.8 0.2 1.5 0.4 2 0.7 0.7 0.3 1.2 0.6 1.7 0.9l-2.8 5c-0.3-0.2-0.6-0.4-0.9-0.6 -0.3-0.1-0.7-0.3-1.1-0.4C44 6.4 43.5 6.3 43 6.3c-0.6 0-1.1 0.1-1.5 0.3 -0.5 0.2-0.9 0.5-1.2 0.8 -0.3 0.3-0.6 0.7-0.8 1.2 -0.2 0.5-0.3 0.9-0.3 1.5 0 0.5 0.1 1 0.3 1.5 0.2 0.5 0.5 0.9 0.8 1.2 0.4 0.3 0.8 0.6 1.3 0.8 0.5 0.2 1 0.3 1.6 0.3s1.1-0.1 1.5-0.2c0.4-0.1 0.8-0.3 1.1-0.5 0.4-0.2 0.7-0.4 0.9-0.7l2.8 5c-0.5 0.4-1.1 0.7-1.7 1 -0.6 0.2-1.3 0.5-2.1 0.7C45 19.4 44 19.5 43 19.5c-1.4 0-2.7-0.2-3.9-0.7 -1.2-0.5-2.2-1.1-3.1-1.9 -0.9-0.8-1.5-1.8-2-3C33.6 12.8 33.4 11.5 33.4 10.1zM36.7 10.1c0-0.9 0.1-1.7 0.4-2.4 0.3-0.8 0.7-1.4 1.2-2 0.5-0.6 1.2-1 2-1.3C41.2 4.1 42 3.9 43 3.9c0.5 0 0.9 0 1.2 0.1 0.4 0.1 0.7 0.1 0.9 0.2 0.3 0.1 0.6 0.2 0.8 0.3l0.4-0.6c-0.3-0.1-0.6-0.2-0.9-0.3 -0.3-0.1-0.7-0.2-1-0.2 -0.4-0.1-0.8-0.1-1.4-0.1 -0.9 0-1.8 0.2-2.6 0.5 -0.8 0.3-1.6 0.8-2.2 1.4 -0.6 0.6-1.1 1.3-1.5 2.2C36.2 8.1 36 9.1 36 10.1c0 1.1 0.2 2 0.5 2.8 0.4 0.8 0.9 1.6 1.5 2.2 0.6 0.6 1.4 1.1 2.2 1.4 0.9 0.3 1.8 0.5 2.7 0.5 0.5 0 1 0 1.4-0.1 0.4-0.1 0.8-0.2 1.1-0.3 0.3-0.1 0.6-0.3 0.9-0.4l-0.4-0.6c-0.2 0.2-0.5 0.3-0.8 0.4 -0.3 0.1-0.6 0.2-1 0.3 -0.4 0.1-0.8 0.1-1.3 0.1 -1 0-1.9-0.2-2.7-0.5 -0.8-0.3-1.5-0.8-2-1.3 -0.5-0.6-1-1.2-1.3-2C36.9 11.8 36.7 11 36.7 10.1zM50.7 1.1h5.8v4.1l3.4-4.1h7l-6.3 8.2 6.6 9.7h-6.9l-3.8-5.5V19h-5.8V1.1zM54.1 16.9v-3.6l2.8-3.5 4.9 7.1h0.8l-5.2-7.6 4.8-5.9h-0.9l-7.2 8.9V3.3h-0.7v13.6H54.1zM74.7 1.1H79L85.7 19h-5.6l-0.6-1.6h-5.4L73.5 19h-5.6L74.7 1.1zM71.9 16.9l0.5-1.3h8.8l0.5 1.3h0.7L77.3 3.3h-1l-5.2 13.6H71.9zM76.8 3.9l4.2 11h-8.4L76.8 3.9zM78 13.5l-1.2-3.1 -1.2 3.1H78zM87 5.8h-3.3V1.1h12.5v4.7h-3.3V19H87V5.8zM90.3 16.9V3.9h3.8V3.3h-8.4v0.6h3.8v12.9H90.3zM97.7 1.1h5.7v6.1h3.2V1.1h5.7V19h-5.7v-6.6h-3.2V19h-5.7V1.1zM101 16.9v-6.8h7.9v6.8h0.7V3.3h-0.7v6.2H101V3.3h-0.7v13.6H101zM114.3 10.1c0-1.3 0.2-2.5 0.7-3.6 0.5-1.1 1.2-2.1 2-3 0.8-0.8 1.8-1.5 3-2 1.1-0.5 2.4-0.7 3.6-0.7s2.5 0.2 3.6 0.7c1.1 0.5 2.1 1.2 3 2s1.5 1.8 2 3c0.5 1.1 0.7 2.4 0.7 3.6 0 1.3-0.2 2.5-0.7 3.6 -0.5 1.1-1.2 2.1-2 3 -0.8 0.8-1.8 1.5-3 2 -1.1 0.5-2.4 0.7-3.6 0.7s-2.5-0.2-3.6-0.7 -2.1-1.2-3-2c-0.8-0.8-1.5-1.8-2-3C114.6 12.6 114.3 11.4 114.3 10.1zM116.8 10.1c0 0.9 0.2 1.8 0.5 2.7 0.4 0.8 0.8 1.6 1.5 2.2 0.6 0.6 1.4 1.1 2.2 1.5 0.8 0.4 1.7 0.5 2.7 0.5s1.8-0.2 2.7-0.5c0.8-0.4 1.6-0.8 2.2-1.5 0.6-0.6 1.1-1.4 1.5-2.2 0.4-0.8 0.5-1.7 0.5-2.7 0-0.9-0.2-1.8-0.5-2.7 -0.4-0.8-0.8-1.6-1.5-2.2 -0.6-0.6-1.4-1.1-2.2-1.5s-1.7-0.5-2.7-0.5 -1.8 0.2-2.7 0.5 -1.6 0.8-2.2 1.5c-0.6 0.6-1.1 1.4-1.5 2.2C117 8.3 116.8 9.1 116.8 10.1zM123.7 16.3c-0.9 0-1.7-0.2-2.4-0.5 -0.7-0.3-1.4-0.8-2-1.3 -0.6-0.6-1-1.2-1.3-2 -0.3-0.7-0.5-1.5-0.5-2.4 0-0.9 0.2-1.7 0.5-2.4 0.3-0.7 0.8-1.4 1.3-2 0.6-0.6 1.2-1 2-1.3 0.7-0.3 1.5-0.5 2.4-0.5 0.9 0 1.7 0.2 2.4 0.5 0.7 0.3 1.4 0.8 2 1.3s1 1.2 1.3 2c0.3 0.7 0.5 1.5 0.5 2.4 0 0.9-0.2 1.7-0.5 2.4 -0.3 0.7-0.8 1.4-1.3 2 -0.6 0.6-1.2 1-2 1.3C125.3 16.1 124.5 16.3 123.7 16.3zM119.9 10.1c0 0.5 0.1 1 0.3 1.5 0.2 0.5 0.5 0.9 0.8 1.2s0.7 0.6 1.2 0.8 0.9 0.3 1.5 0.3c0.5 0 1-0.1 1.5-0.3s0.9-0.5 1.2-0.8c0.3-0.3 0.6-0.7 0.8-1.2 0.2-0.5 0.3-0.9 0.3-1.5 0-0.5-0.1-1-0.3-1.5 -0.2-0.5-0.5-0.9-0.8-1.2 -0.3-0.3-0.7-0.6-1.2-0.8 -0.5-0.2-0.9-0.3-1.5-0.3 -0.5 0-1 0.1-1.5 0.3 -0.5 0.2-0.9 0.5-1.2 0.8 -0.3 0.3-0.6 0.7-0.8 1.2C120 9.1 119.9 9.6 119.9 10.1zM135.1 1.1h4.7l4.9 6.9V1.1h5.6V19h-4.7l-4.9-6.9V19h-5.6V1.1zM138.3 16.9V4.5l8.8 12.4h0.7V3.3h-0.7v12.4l-8.8-12.4h-0.7v13.6H138.3zM134.1 27c0-0.1 0-0.2 0.1-0.3 0.1-0.1 0.2-0.1 0.3-0.1s0.2 0 0.3 0.1c0.1 0.1 0.1 0.2 0.1 0.3 0 0.1 0 0.2-0.1 0.3 -0.1 0.1-0.2 0.1-0.3 0.1s-0.2 0-0.3-0.1C134.1 27.2 134.1 27.1 134.1 27zM139.8 25.8c-0.1 0.5-0.3 0.9-0.6 1.2s-0.8 0.4-1.3 0.4c-0.6 0-1.1-0.2-1.4-0.6 -0.4-0.4-0.5-1-0.5-1.7v-0.5c0-0.5 0.1-0.9 0.2-1.2 0.2-0.3 0.4-0.6 0.7-0.8 0.3-0.2 0.6-0.3 1-0.3 0.5 0 0.9 0.1 1.3 0.4 0.3 0.3 0.5 0.7 0.6 1.2h-0.7c-0.1-0.4-0.2-0.7-0.4-0.9 -0.2-0.2-0.5-0.3-0.8-0.3 -0.4 0-0.7 0.2-1 0.5s-0.4 0.7-0.4 1.3v0.5c0 0.5 0.1 1 0.3 1.3 0.2 0.3 0.5 0.5 0.9 0.5 0.4 0 0.6-0.1 0.8-0.2 0.2-0.2 0.3-0.4 0.4-0.9H139.8zM144.6 25c0 0.5-0.1 0.9-0.2 1.3s-0.4 0.6-0.7 0.8 -0.6 0.3-1 0.3c-0.4 0-0.7-0.1-1-0.3 -0.3-0.2-0.5-0.5-0.7-0.8 -0.2-0.4-0.3-0.8-0.3-1.2v-0.4c0-0.5 0.1-0.9 0.2-1.3 0.2-0.4 0.4-0.6 0.7-0.8 0.3-0.2 0.6-0.3 1-0.3 0.4 0 0.7 0.1 1 0.3 0.3 0.2 0.5 0.5 0.7 0.8 0.2 0.4 0.2 0.8 0.2 1.3V25zM144 24.7c0-0.6-0.1-1-0.4-1.3 -0.2-0.3-0.6-0.5-1-0.5 -0.4 0-0.7 0.2-1 0.5 -0.2 0.3-0.4 0.7-0.4 1.3V25c0 0.6 0.1 1 0.4 1.3 0.2 0.3 0.6 0.5 1 0.5 0.4 0 0.7-0.2 1-0.5 0.2-0.3 0.3-0.7 0.4-1.3V24.7zM146.6 22.4l1.6 4 1.6-4h0.8v4.9H150v-1.9l0.1-2.1 -1.6 4h-0.5l-1.6-4 0.1 2.1v1.9h-0.7v-4.9H146.6z"></path>
</svg>