<svg width="110" height="24" viewBox="0 0 110 24" fill="inherit"
    xmlns="http://www.w3.org/2000/svg">
    <path d="M29.1035 5.44159H34.1635C37.8144 5.44159 39.5044 7.00722 39.5044 9.73753V9.80913C39.5044 12.5156
				37.6272 13.9762 34.3311 13.9762H32.9022V18.3199H29.1035V5.44159ZM33.996 11.4559C35.2278 11.4559 35.8781
				10.8974 35.8781 9.833V9.7614C35.8781 8.66355 35.2081 8.21009 34.0157 8.21009H32.9022V11.4559H33.996Z"></path>
    <path d="M40.3076 15.0502V8.90225H43.6383V14.5252C43.6383 15.5896 44.062 16.1099 45.0129 16.1099C45.9638
				16.1099 46.6684 15.5371 46.6684 14.3295V8.90225H49.999V18.3295H46.6684V16.8688C46.1461 17.8235 45.1903
				18.5443 43.5791 18.5443C41.702 18.5443 40.3076 17.4273 40.3076 15.0502Z"></path>
    <path d="M54.7437 16.8688V18.3294H51.4131V4.77332H54.7437V10.3055C55.052 9.79405 55.495 9.37113 56.0274
				9.08009C56.5598 8.78905 57.1626 8.64035 57.7738 8.64921C60.0452 8.64921 61.8879 10.3055 61.8879
				13.5323V13.6802C61.8879 16.9213 60.0452 18.5442 57.759 18.5442C57.1422 18.5826 56.5273 18.4441 55.9911
				18.1462C55.4549 17.8483 55.0211 17.404 54.7437 16.8688ZM58.503 13.6802V13.5323C58.503 11.8759 57.759
				11.0836 56.5864 11.0836C55.4138 11.0836 54.6501 11.9285 54.6501 13.5179V13.6611C54.6501 15.265 55.3744
				16.0764 56.5864 16.0764C57.7985 16.0764 58.503 15.2268 58.503 13.6802Z"></path>
    <path d="M67.2829 8.28654H63.834V5.42258H74.5551V8.28654H71.1062V18.3104H67.273L67.2829 8.28654Z"></path>
    <path d="M73.2344 15.7138C73.2344 13.499 75.1707 12.635 78.4077 12.635H79.3241V12.4107C79.3241 11.5085 79.1024
				10.9166 78.0382 10.9166C77.8745 10.8994 77.7088 10.9153 77.5517 10.9632C77.3946 11.0111 77.2495 11.09
				77.1254 11.1949C77.0014 11.2998 76.9011 11.4285 76.8309 11.5729C76.7608 11.7172 76.7222 11.8741 76.7178
				12.0336H73.6088C73.7566 9.76151 75.5796 8.64456 78.2599 8.64456C80.9402 8.64456 82.6498 9.709 82.6498
				12.215V18.3295H79.4128V17.2317C78.9497 17.9142 78.0924 18.5443 76.5305 18.5443C74.7815 18.5443 73.2344
				17.7185 73.2344 15.7138ZM79.3241 15.0312V14.4536H78.4471C77.1119 14.4536 76.5158 14.7066 76.5158
				15.4799C76.5158 16.024 76.8853 16.3629 77.6687 16.3629C78.6294 16.3629 79.3241 15.8426 79.3241 15.0312Z"></path>
    <path d="M87.3209 16.8688V18.3294H83.9902V4.77332H87.3209V10.3055C87.6291 9.79405 88.0721 9.37113 88.6046
				9.08009C89.137 8.78905 89.7397 8.64035 90.351 8.64921C92.6223 8.64921 94.465 10.3055 94.465
				13.5323V13.6802C94.465 16.9213 92.6223 18.5442 90.3362 18.5442C89.7193 18.5826 89.1044 18.4441 88.5682
				18.1462C88.032 17.8483 87.5982 17.404 87.3209 16.8688ZM91.0802 13.6802V13.5323C91.0802 11.8759 90.3362
				11.0836 89.1636 11.0836C87.991 11.0836 87.2076 11.9332 87.2076 13.5179V13.6611C87.2076 15.265 87.9318
				16.0764 89.1439 16.0764C90.3559 16.0764 91.0802 15.2268 91.0802 13.6802Z"></path>
    <path d="M95.4902 4.77332H98.8012V18.3294H95.4902V4.77332Z"></path>
    <path d="M99.7861 13.7328V13.5896C99.7861 10.5586 102.112 8.64929 105.053 8.64929C107.714 8.64929 109.98
				10.129 109.98 13.518V14.3629H103.132C103.225 15.6087 103.969 16.3295 105.161 16.3295C106.26 16.3295
				106.723 15.8522 106.856 15.2125H109.98C109.684 17.3366 108.009 18.5538 105.053 18.5538C102.018 18.5443
				99.7861 16.8164 99.7861 13.7328ZM106.763 12.5443C106.709 11.4082 106.132 10.7782 105.053 10.7782C104.068
				10.7782 103.358 11.4082 103.191 12.5443H106.763Z"></path>
    <path fill-rule="evenodd" clip-rule="evenodd" d="M16.6512 3.66884C17.8109 3.83277 18.8121 4.18335 19.626 4.97186C20.4393 5.75978 20.8027 6.72907
				20.9733 7.85284C21.1366 8.92832 21.1366 10.2517 21.1366 11.8222V11.9237C21.1366 13.5103 21.1366 14.8449
				20.9714 15.9284C20.8002 17.0517 20.437 18.02 19.6275 18.8075C18.8159 19.5969 17.8141 19.9489 16.6541
				20.1141C15.5434 20.2723 14.1762 20.2722 12.555 20.2722H12.4506C10.8152 20.2722 9.4364 20.2722 8.31684
				20.1122C7.15714 19.9465 6.15487 19.5949 5.34348 18.8088C4.53147 18.0221 4.17006 17.0504 4.0004
				15.9271C3.83784 14.8508 3.83786 13.5265 3.8379 11.9579L3.8379 11.8903C3.8379 11.8563 3.8379 11.8224
				3.83789 11.7887C3.83782 10.2357 3.83775 8.92249 3.99847 7.8541C4.16752 6.73032 4.52915 5.7576 5.34489
				4.9705C6.15836 4.18559 7.15858 3.83524 8.31781 3.67071C9.42764 3.51319 10.7934 3.51322 12.4147
				3.51325L12.4848 3.51325C12.52 3.51325 12.5551 3.51325 12.5901 3.51325C14.1951 3.51317 15.5495 3.51311
				16.6512 3.66884ZM16.3666 5.55814C15.4156 5.4237 14.1938 5.42256 12.4848 5.42256C10.7766 5.42256 9.55443
				5.42488 8.60348 5.55985C7.68598 5.69007 7.14406 5.92922 6.73563 6.32331C6.32948 6.71521 6.08263 7.2389
				5.94867 8.12944C5.80987 9.05213 5.80869 10.2371 5.80869 11.8903C5.80869 13.5427 5.81109 14.7281 5.95043
				15.6507C6.08501 16.5417 6.33209 17.0664 6.73704 17.4587C7.14262 17.8517 7.68496 18.0919 8.60445
				18.2234C9.5563 18.3594 10.7799 18.3629 12.4848 18.3629C14.193 18.3629 15.4161 18.3606 16.3674
				18.2251C17.2853 18.0943 17.8257 17.8544 18.2311 17.4601C18.6385 17.0638 18.8863 16.5381 19.0218
				15.6494C19.1621 14.7286 19.1658 13.5445 19.1658 11.8903C19.1658 10.2354 19.1633 9.05164 19.0235
				8.1307C18.8887 7.24254 18.6411 6.7178 18.2325 6.32194C17.8245 5.92669 17.2836 5.68776 16.3666 5.55814Z"></path>
    <path fill-rule="evenodd" clip-rule="evenodd" d="M12.4893 1.90476C12.2528 1.90476 12.0186 1.94997 11.8001 2.03779C11.5817 2.12561 11.3832 2.25432
				11.2162 2.41655L11.0035 2.62262C10.6186 2.99544 9.99473 2.99544 9.60991 2.62262C9.22508 2.2498 9.22508
				1.64535 9.60991 1.27253L9.82092 1.0681C9.82108 1.06795 9.82123 1.0678 9.82139 1.06765C10.1714 0.727847
				10.5872 0.45824 11.0448 0.27426C11.5027 0.0901972 11.9936 -0.00454712 12.4893 -0.00454712C12.9851
				-0.00454712 13.476 0.0901972 13.9338 0.27426C14.3915 0.458218 14.8072 0.727781 15.1572 1.06753C15.1574
				1.06772 15.1576 1.06791 15.1578 1.0681L15.3688 1.27253C15.7536 1.64535 15.7536 2.2498 15.3688
				2.62262C14.984 2.99544 14.36 2.99544 13.9752 2.62262L13.7625 2.41655C13.5955 2.25432 13.397 2.12561
				13.1786 2.03779C12.9601 1.94997 12.7259 1.90476 12.4893 1.90476Z"></path>
    <path fill-rule="evenodd" clip-rule="evenodd" d="M22.4334 9.0977C22.8226 8.7292 23.4465 8.73615 23.8269 9.11322L24.033 9.31754C24.3836 9.65454 24.6622
				10.0553 24.8528 10.4968C25.0446 10.9412 25.1433 11.4181 25.1433 11.8998C25.1433 12.3815 25.0446 12.8583
				24.8528 13.3027C24.6615 13.7461 24.3813 14.1484 24.0286 14.4862L23.8189 14.6894C23.4341 15.0622 22.8102
				15.0622 22.4253 14.6894C22.0405 14.3166 22.0405 13.7121 22.4253 13.3393L22.6418 13.1296C22.8099 12.9689
				22.9434 12.7774 23.0345 12.5663C23.1256 12.3552 23.1725 12.1286 23.1725 11.8998C23.1725 11.671 23.1256
				11.4444 23.0345 11.2333C22.9434 11.0222 22.8099 10.8307 22.6418 10.67C22.6376 10.6659 22.6334 10.6618
				22.6292 10.6577L22.4174 10.4477C22.037 10.0706 22.0442 9.46621 22.4334 9.0977Z"></path>
    <path fill-rule="evenodd" clip-rule="evenodd" d="M2.69894 9.08345C3.08816 9.45196 3.09533 10.0564 2.71496 10.4334L2.50309 10.6435L2.49304
				10.6533C2.32537 10.8148 2.19231 11.0068 2.10151 11.2182C2.01071 11.4297 1.96396 11.6565 1.96396
				11.8855C1.96396 12.1146 2.01071 12.3414 2.10151 12.5528C2.19231 12.7643 2.32537 12.9563 2.49304
				13.1178L2.49514 13.1198L2.49513 13.1198L2.70699 13.3251C3.09181 13.6979 3.09181 14.3023 2.70699
				14.6751C2.32217 15.048 1.69825 15.048 1.31343 14.6751L1.10366 14.4719C1.10327 14.4715 1.10289 14.4712
				1.10251 14.4708C0.75112 14.1321 0.472232 13.7295 0.281858 13.2861C0.0912766 12.8423 -0.00683594 12.3663
				-0.00683594 11.8855C-0.00683594 11.4048 0.0912767 10.9288 0.281858 10.4849C0.471456 10.0434 0.748848
				9.64225 1.09822 9.30442L1.30547 9.09897C1.68584 8.72189 2.30972 8.71495 2.69894 9.08345Z"></path>
    <path fill-rule="evenodd" clip-rule="evenodd" d="M9.60014 21.3775C9.98496 21.0047 10.6089 21.0047 10.9937 21.3775L11.2064 21.5836C11.3735 21.7458
				11.5719 21.8746 11.7904 21.9624C12.0088 22.0502 12.243 22.0954 12.4796 22.0954C12.7161 22.0954 12.9503
				22.0502 13.1688 21.9624C13.3873 21.8746 13.5857 21.7458 13.7527 21.5836L13.9655 21.3775C14.3503 21.0047
				14.9742 21.0047 15.359 21.3775C15.7438 21.7504 15.7438 22.3548 15.359 22.7276L15.148 22.9321C15.1479
				22.9322 15.1477 22.9323 15.1476 22.9325C14.7975 23.2723 14.3818 23.5419 13.9241 23.7259C13.4662 23.91
				12.9753 24.0047 12.4796 24.0047C11.9838 24.0047 11.493 23.91 11.0351 23.7259C10.5774 23.5419 10.1616
				23.2723 9.8116 22.9325C9.81145 22.9323 9.8113 22.9322 9.81116 22.9321L9.60014 22.7276C9.21532 22.3548
				9.21532 21.7504 9.60014 21.3775Z"></path>
</svg>